<svg width="1280" height="1498" viewBox="0 0 1280 1498" fill="none" xmlns="http://www.w3.org/2000/svg">
<path d="M700 1398V1498H300V1398H700ZM900 1198V577C900 503.463 899.788 458.369 895.4 425.734C891.4 395.976 885.646 391.935 885.355 391.645C885.065 391.354 881.024 385.6 851.266 381.6C818.631 377.212 773.537 377 700 377H300C226.463 377 181.369 377.212 148.734 381.6C118.976 385.6 114.935 391.354 114.645 391.645C114.354 391.935 108.6 395.976 104.6 425.734C100.212 458.369 100 503.463 100 577V1198C100 1271.54 100.212 1316.63 104.6 1349.27C108.6 1379.02 114.354 1383.07 114.645 1383.36C114.935 1383.65 118.976 1389.4 148.734 1393.4C181.369 1397.79 226.463 1398 300 1398V1498C159.684 1498 88.9773 1498 44.9688 1455.09L43.9336 1454.07C-0.000377655 1410.13 0 1339.42 0 1198V577C0 435.579 -0.000389099 364.868 43.9336 320.934C87.8676 277 158.579 277 300 277H700C841.421 277 912.132 277 956.066 320.934C1000 364.868 1000 435.579 1000 577V1198C1000 1339.42 1000 1410.13 956.066 1454.07L955.031 1455.09C911.023 1498 840.316 1498 700 1498V1398C773.537 1398 818.631 1397.79 851.266 1393.4C881.024 1389.4 885.065 1383.65 885.355 1383.36C885.646 1383.07 891.4 1379.02 895.4 1349.27C899.788 1316.63 900 1271.54 900 1198Z" fill="white"/>
<path d="M992.271 0.000976562C1125.03 0.0425421 1192.72 1.37258 1235.29 43.9336C1279.22 87.8676 1279.22 158.579 1279.22 300V921C1279.22 1062.42 1279.22 1133.13 1235.29 1177.07L1234.25 1178.09C1202.22 1209.32 1156.06 1217.82 1079.22 1220.13V1120.09C1099.58 1119.44 1116.22 1118.32 1130.48 1116.4C1160.24 1112.4 1164.28 1106.65 1164.57 1106.36C1164.86 1106.07 1170.62 1102.02 1174.62 1072.27C1179.01 1039.63 1179.22 994.537 1179.22 921V300C1179.22 226.463 1179.01 181.369 1174.62 148.734C1170.62 118.976 1164.86 114.935 1164.57 114.645C1164.28 114.354 1160.24 108.6 1130.48 104.6C1097.85 100.212 1052.76 100 979.219 100H579.219C505.681 100 460.588 100.212 427.953 104.6C398.195 108.6 394.153 114.354 393.863 114.645C393.573 114.935 387.819 118.976 383.818 148.734C381.807 163.692 380.675 181.268 380.037 203H280C282.209 123.517 290.676 76.4094 323.152 43.9336C367.086 -0.000389099 437.797 0 579.219 0L992.271 0.000976562Z" fill="white"/>
</svg>
