<svg width="499" height="698" viewBox="0 0 499 698" fill="none" xmlns="http://www.w3.org/2000/svg">
<path d="M282 35.6289C417.718 49.7752 484.025 154.579 497.42 293.56H417.703C407.847 179.404 365.757 92.8082 282 75.4785V622.521C368.205 604.684 410.273 513.474 418.485 394.36H498.295C487.174 538.331 420.98 647.882 282 662.368V698H215V662.04C63.9071 644.67 0.000918553 513.751 0 349C0.000898935 184.249 63.907 53.3286 215 35.959V0H282V35.6289ZM215 76.1338C120.29 97.8638 80.0006 209.656 80 349C80.0006 488.343 120.29 600.135 215 621.865V76.1338Z" fill="#51B1FF"/>
</svg>
