<svg width="32" height="30" viewBox="0 0 32 32" fill="none" xmlns="http://www.w3.org/2000/svg">
<path d="M16 0C24.8366 0 32 7.14156 32 15.9511C32 21.8603 28.777 27.0189 23.9879 29.7752C22.8183 30.4483 21.4725 29.5209 21.4725 28.1745C21.4725 27.4375 21.8988 26.7753 22.5257 26.3847C26.0123 24.2127 28.3318 20.352 28.3318 15.9511C28.3318 9.16127 22.8107 3.65701 16 3.65701C9.18935 3.65701 3.66822 9.16127 3.66822 15.9511C3.66822 20.352 5.98766 24.2127 9.4743 26.3847C10.1012 26.7753 10.5275 27.4375 10.5275 28.1745C10.5275 29.5209 9.18167 30.4483 8.01209 29.7752C3.22302 27.0189 0 21.8603 0 15.9511C0 7.14156 7.16344 0 16 0Z" fill="white"/>
</svg>
