<svg width="30" height="30" viewBox="0 0 30 30" fill="none" xmlns="http://www.w3.org/2000/svg">
<path d="M0.585756 0.585635C1.36677 -0.195212 2.63287 -0.195212 3.41388 0.585635L14.7283 11.9001L26.0418 0.586612C26.8229 -0.194285 28.0889 -0.194386 28.8699 0.586612C29.6508 1.36762 29.6508 2.63373 28.8699 3.41474L17.5565 14.7282L28.8699 26.0417C29.6509 26.8227 29.6508 28.0888 28.8699 28.8698C28.0889 29.6508 26.8229 29.6508 26.0418 28.8698L14.7283 17.5563L3.41388 28.8708C2.63288 29.6517 1.3668 29.6517 0.585756 28.8708C-0.195272 28.0898 -0.195232 26.8237 0.585756 26.0427L11.9002 14.7282L0.585756 3.41376C-0.195141 2.6327 -0.195242 1.36663 0.585756 0.585635Z" fill="white"/>
</svg>
