<svg width="514" height="200" viewBox="0 0 514 200" fill="none" xmlns="http://www.w3.org/2000/svg">
<path d="M220.344 45.5586C265.439 45.585 287.11 70.8386 291.238 105.175H172.343C171.867 109.27 171.634 113.528 171.634 117.908C171.634 152.372 185.997 179.236 220.344 179.261C251.142 179.238 265.87 157.637 268.586 128.326H291.489C288.067 163.837 266.447 190.231 220.344 190.258C169.834 190.228 148.711 158.55 148.711 117.908C148.711 77.2669 169.834 45.5883 220.344 45.5586ZM220.344 56.5557C195.453 56.5739 181.061 70.6876 175.021 91.5732H265.668C259.628 70.6875 245.234 56.5738 220.344 56.5557Z" fill="#51B1FF"/>
<rect x="80.8027" width="200" height="19.1977" transform="rotate(90 80.8027 0)" fill="#51B1FF"/>
<path d="M71.6328 9.74219C116.728 9.77508 138.399 41.2791 142.527 84.1143H119.685C116.521 47.4763 101.77 20.7462 71.6328 20.7178C37.2862 20.7504 22.9231 55.4643 22.9229 100C22.9232 144.536 37.2862 179.251 71.6328 179.283C102.557 179.254 117.279 151.11 119.907 112.997H142.777C139.355 157.297 117.736 190.224 71.6328 190.258C21.1231 190.221 0.000476368 150.701 0 100C0.000276642 49.2989 21.1229 9.77926 71.6328 9.74219Z" fill="#51B1FF"/>
<path d="M316.907 189.111H297.709V46.418H316.907V189.111Z" fill="#51B1FF"/>
<path d="M407.424 189.112C407.424 7.73634 338.54 55.7369 314.041 92.5564V77.3701C329.944 44.7053 436.104 -8.59617 426.076 189.112L407.424 189.112Z" fill="#51B1FF"/>
<rect x="440.975" y="32.3779" width="72.7794" height="10.8883" fill="#51B1FF"/>
<path d="M513.754 189.685C432.235 189.685 437.052 147.851 437.052 10.6016H453.242C453.242 117.478 446.848 178.796 513.754 178.796V189.685Z" fill="#51B1FF"/>
</svg>
